<svg xmlns="http://www.w3.org/2000/svg" version="1.1" xmlns:xlink="http://www.w3.org/1999/xlink" xmlns:svgjs="http://svgjs.dev/svgjs" width="1500" height="511" viewBox="0 0 1500 511"><g transform="matrix(1,0,0,1,-0.9090909090909918,-1.4403511584861803)"><svg viewBox="0 0 396 135" data-background-color="#ffffff" preserveAspectRatio="xMidYMid meet" height="511" width="1500" xmlns="http://www.w3.org/2000/svg" xmlns:xlink="http://www.w3.org/1999/xlink"><g id="tight-bounds" transform="matrix(1,0,0,1,0.2400000000000091,0.38052330018714997)"><svg viewBox="0 0 395.52 134.23894892104272" height="134.23894892104272" width="395.52"><g><svg viewBox="0 0 633.8062954552 215.112992823235" height="134.23894892104272" width="395.52"><g transform="matrix(1,0,0,1,238.28629545520008,63.96722346972685)"><svg viewBox="0 0 395.52 87.17854588378131" height="87.17854588378131" width="395.52"><g id="textblocktransform"><svg viewBox="0 0 395.52 87.17854588378131" height="87.17854588378131" width="395.52" id="textblock"><g><svg viewBox="0 0 395.52 49.08017467248908" height="49.08017467248908" width="395.52"><g transform="matrix(1,0,0,1,0,0)"><svg width="395.52" viewBox="0.5 -34.1 271.78 34.1" height="49.08017467248908" data-palette-color="#000000"><g class="wordmark-text-0" data-fill-palette-color="primary" id="text-0"><path d="M17.5-0.45L9.5-0.45 9.5-25.35 0.5-25.35 0.5-32.1 26.5-32.1 26.5-25.35 17.5-25.35 17.5-0.45ZM38.1-9.25L38-0.45 30-0.45 30-24.8 36.5-24.8 37.15-19.8 37.3-19.8Q37.75-22.6 39.45-23.83 41.15-25.05 44.5-25.05L44.5-25.05Q45.85-25.05 46.95-24.93 48.05-24.8 48.8-24.7L48.8-24.7 48.8-16.9 48.7-16.8Q47.9-17 46.87-17.15 45.85-17.3 44.55-17.3L44.55-17.3Q42.7-17.3 41.22-16.7 39.75-16.1 38.92-14.38 38.1-12.65 38.1-9.25L38.1-9.25 38.1-9.25ZM61.55-25.05L61.55-25.05Q66.34-25.05 69.3-24.05 72.25-23.05 73.62-20.38 75-17.7 75-12.65L75-12.65 75-0.45 67.75-0.45 67.5-2.75 67.34-2.75Q66.4-1.5 64.4-0.75 62.4 0 59.2 0L59.2 0Q50.55 0 50.55-8.1L50.55-8.1Q50.55-11.55 52.82-13.53 55.09-15.5 60-15.5L60-15.5 67.4-15.5Q67.05-17.6 65.59-18.32 64.15-19.05 60.65-19.05L60.65-19.05Q58.45-19.05 56.32-18.73 54.2-18.4 52.59-18L52.59-18 52.45-18.1 52.5-23.9Q53.5-24.2 55.05-24.48 56.59-24.75 58.32-24.9 60.05-25.05 61.55-25.05ZM61.25-5.9L61.25-5.9Q64.34-5.9 65.9-6.68 67.45-7.45 67.5-9.15L67.5-9.15 67.5-10.4 61.84-10.4Q59.65-10.4 58.77-9.78 57.9-9.15 57.9-8.1L57.9-8.1Q57.9-6.85 58.8-6.38 59.7-5.9 61.25-5.9ZM103.19-24.8L103.19-24.65 95.24-0.45 85.24-0.45 77.74-24.7 77.74-24.8 86.74-24.8Q87.79-20.9 88.72-16.35 89.64-11.8 90.39-7.6L90.39-7.6 90.59-7.6Q91.34-11.8 92.27-16.35 93.19-20.9 94.24-24.8L94.24-24.8 103.19-24.8ZM128.14-6.8L128.14-1.25Q126.74-0.75 124.27-0.38 121.79 0 118.39 0L118.39 0Q114.09 0 111.07-1.13 108.04-2.25 106.49-4.98 104.94-7.7 104.94-12.55L104.94-12.55Q104.94-19.15 107.97-22.1 110.99-25.05 117.34-25.05L117.34-25.05Q121.89-25.05 124.52-23.75 127.14-22.45 128.27-20.08 129.39-17.7 129.39-14.45L129.39-14.45Q129.39-13.5 129.31-12.4 129.24-11.3 129.04-10.25L129.04-10.25 128.84-10.05 112.39-10.05Q112.74-7.85 114.47-7.15 116.19-6.45 120.09-6.45L120.09-6.45Q122.69-6.45 124.42-6.58 126.14-6.7 127.94-6.95L127.94-6.95 128.14-6.8ZM112.24-15.3L122.44-15.3Q122.44-16.5 122.07-17.38 121.69-18.25 120.59-18.73 119.49-19.2 117.34-19.2L117.34-19.2Q114.19-19.2 113.22-18.13 112.24-17.05 112.24-15.3L112.24-15.3ZM141.64-34.1L141.64-0.45 133.64-0.45 133.64-34.1 141.64-34.1Z" fill="#000000" data-fill-palette-color="primary"></path></g></svg></g></svg></g><g transform="matrix(1,0,0,1,0,60.666825988471615)"><svg viewBox="0 0 330.65472 26.511719895309707" height="26.511719895309707" width="330.65472"><g transform="matrix(1,0,0,1,0,0)"><svg width="330.65472" viewBox="2.64 -36.08 587.61 47.12" height="26.511719895309707" data-palette-color="url(#40ba232e-42f0-4bef-a928-3b7f780d8355)"></svg></g></svg></g></svg></g></svg></g><g><svg viewBox="0 0 215.112992823235 215.112992823235" height="215.112992823235" width="215.112992823235"><g><svg></svg></g><g id="icon-0"><svg viewBox="0 0 215.112992823235 215.112992823235" height="215.112992823235" width="215.112992823235"><g><path d="M0 107.556c0-59.402 48.155-107.556 107.556-107.556 59.402 0 107.556 48.155 107.557 107.556 0 59.402-48.155 107.556-107.556 107.557-59.402 0-107.556-48.155-107.557-107.556zM107.556 210.687c56.957 0 103.13-46.173 103.131-103.131 0-56.957-46.173-103.13-103.13-103.13-56.957 0-103.13 46.173-103.131 103.13 0 56.957 46.173 103.13 103.13 103.131z" data-fill-palette-color="accent" fill="#7b68ee" stroke="transparent"></path></g><g transform="matrix(1,0,0,1,42.7015647428685,56.05803555722521)"><svg viewBox="0 0 129.709863337498 102.99692170878458" height="102.99692170878458" width="129.709863337498"><g><svg xmlns="http://www.w3.org/2000/svg" xmlns:xlink="http://www.w3.org/1999/xlink" version="1.1" x="0" y="0" viewBox="2.636 11.36 84.727 67.278" enable-background="new 0 0 90 90" xml:space="preserve" height="102.99692170878458" width="129.709863337498" class="icon-dxe-0" data-fill-palette-color="accent" id="dxe-0"><path d="M65.488 65.37A3.24 3.24 0 0 1 62.245 65.888 3.26 3.26 0 0 1 61.005 64.989 24.52 24.52 0 0 1 47.723 73.789C50.713 71.707 53.186 68.118 54.844 63.58H60.297C60.276 63.484 60.234 63.398 60.223 63.301L59.938 61.136H55.63C56.471 58.145 56.973 54.828 57.068 51.3H58.642L58.32 48.856H57.068A44 44 0 0 0 56.672 44.099C55.893 44.316 55.084 44.53 54.282 44.744 54.456 46.08 54.584 47.444 54.626 48.856H46.016L45.52 51.3H54.625C54.521 54.841 53.986 58.184 53.088 61.136H42.795V55.735L41.543 56.61C41.18 56.867 40.771 57.009 40.351 57.096V61.136H30.058A35 35 0 0 1 29.011 56.536C28.744 56.644 28.469 56.753 28.207 56.865 27.683 57.088 27.215 57.31 26.717 57.533 26.936 58.771 27.194 59.984 27.515 61.136H19.708V61.134A38 38 0 0 0 17.712 62.426 29 29 0 0 0 16.351 63.449C21.156 72.474 30.654 78.638 41.572 78.638 51.811 78.638 60.78 73.205 65.822 65.089zM21.114 63.58H28.302C29.963 68.118 32.432 71.707 35.423 73.789A24.54 24.54 0 0 1 21.114 63.58M40.351 73.266C36.468 72.621 33.081 68.944 30.93 63.58H40.351zM42.795 63.58H52.216C50.067 68.941 46.676 72.621 42.795 73.266z" fill="#7b68ee" data-fill-palette-color="accent"></path><path d="M87.363 24.459C83.368 21.832 75.015 23.686 65.748 27.262L49.466 11.36 43.981 11.548 57.07 30.955C51.685 33.431 46.351 36.187 41.674 38.734L34.918 33.632 32.112 33.959 39.089 42.748 39.69 53.956 42.007 52.339 43.684 44.042C48.874 42.854 54.699 41.382 60.371 39.67L63.424 62.876 67.656 59.381 69.31 36.686C78.628 33.219 86.111 29.072 87.363 24.459" fill="#7b68ee" data-fill-palette-color="accent"></path><path d="M48.527 24.071L47.179 22.072A28.7 28.7 0 0 0 41.569 21.512C27.307 21.512 15.487 32.031 13.377 45.711A87 87 0 0 1 18.398 42.21C18.768 41.113 19.187 40.037 19.706 39.016H23.639A140 140 0 0 1 28.045 36.572H21.112A24.54 24.54 0 0 1 35.422 26.363C33.83 27.473 32.39 29.02 31.135 30.901 31.332 30.838 31.528 30.771 31.739 30.748L34.545 30.421 34.597 30.42C36.294 28.503 38.244 27.236 40.349 26.888V33.682L41.964 34.903C42.246 34.752 42.513 34.619 42.793 34.468V26.888C45.166 27.281 47.353 28.821 49.189 31.173L52.355 29.668z" fill="#7b68ee" data-fill-palette-color="accent"></path><path d="M35.919 43.951L31.522 38.413C28.535 39.944 25.2 41.758 21.715 43.93 17.823 46.376 13.737 49.2 9.99 52.799 8.13 54.612 6.342 56.627 4.892 59.057 4.175 60.274 3.553 61.606 3.125 63.048 3.01 63.401 2.933 63.781 2.845 64.149 2.798 64.332 2.776 64.524 2.741 64.712L2.639 65.393 2.636 66.225 2.659 67.451C2.766 68.928 3.16 70.5 3.944 71.871 4.71 73.254 5.86 74.317 7.004 74.999 9.331 76.362 11.513 76.585 13.392 76.696 17.165 76.811 20.061 76.196 22.087 75.794A80 80 0 0 0 23.699 75.433C17.819 75.124 14.156 73.714 12.189 72.646A8 8 0 0 1 10.661 71.669 5 5 0 0 1 10.344 71.406L10.382 71.403C10.261 71.288 10.12 71.18 10.018 71.057 9.132 69.998 9.109 69.036 9.423 67.656 9.477 67.514 9.524 67.385 9.563 67.251L9.802 66.452 9.81 66.429C9.832 66.304 9.788 66.57 9.794 66.535L9.807 66.507 9.829 66.444 9.873 66.323C9.906 66.244 9.924 66.164 9.965 66.081 10.044 65.918 10.098 65.755 10.193 65.59A10.4 10.4 0 0 1 11.541 63.582C12.668 62.239 14.193 60.953 15.864 59.778 19.236 57.427 23.173 55.502 26.949 53.893 30.233 52.499 33.404 51.37 36.266 50.42z" fill="#7b68ee" data-fill-palette-color="accent"></path></svg></g></svg></g></svg></g></svg></g></svg></g><defs></defs><mask id="bd49ed21-8282-4071-b449-980385873b3a"><g id="SvgjsG1336"><svg viewBox="0 0 395.52 134.23894892104272" height="134.23894892104272" width="395.52"><g><svg viewBox="0 0 633.8062954552 215.112992823235" height="134.23894892104272" width="395.52"><g transform="matrix(1,0,0,1,238.28629545520008,63.96722346972685)"><svg viewBox="0 0 395.52 87.17854588378131" height="87.17854588378131" width="395.52"><g id="SvgjsG1335"><svg viewBox="0 0 395.52 87.17854588378131" height="87.17854588378131" width="395.52" id="SvgjsSvg1334"><g><svg viewBox="0 0 395.52 49.08017467248908" height="49.08017467248908" width="395.52"><g transform="matrix(1,0,0,1,0,0)"><svg width="395.52" viewBox="0.5 -34.1 271.78 34.1" height="49.08017467248908" data-palette-color="#000000"><g class="wordmark-text-0" data-fill-palette-color="primary" id="SvgjsG1333"><path d="M17.5-0.45L9.5-0.45 9.5-25.35 0.5-25.35 0.5-32.1 26.5-32.1 26.5-25.35 17.5-25.35 17.5-0.45ZM38.1-9.25L38-0.45 30-0.45 30-24.8 36.5-24.8 37.15-19.8 37.3-19.8Q37.75-22.6 39.45-23.83 41.15-25.05 44.5-25.05L44.5-25.05Q45.85-25.05 46.95-24.93 48.05-24.8 48.8-24.7L48.8-24.7 48.8-16.9 48.7-16.8Q47.9-17 46.87-17.15 45.85-17.3 44.55-17.3L44.55-17.3Q42.7-17.3 41.22-16.7 39.75-16.1 38.92-14.38 38.1-12.65 38.1-9.25L38.1-9.25 38.1-9.25ZM61.55-25.05L61.55-25.05Q66.34-25.05 69.3-24.05 72.25-23.05 73.62-20.38 75-17.7 75-12.65L75-12.65 75-0.45 67.75-0.45 67.5-2.75 67.34-2.75Q66.4-1.5 64.4-0.75 62.4 0 59.2 0L59.2 0Q50.55 0 50.55-8.1L50.55-8.1Q50.55-11.55 52.82-13.53 55.09-15.5 60-15.5L60-15.5 67.4-15.5Q67.05-17.6 65.59-18.32 64.15-19.05 60.65-19.05L60.65-19.05Q58.45-19.05 56.32-18.73 54.2-18.4 52.59-18L52.59-18 52.45-18.1 52.5-23.9Q53.5-24.2 55.05-24.48 56.59-24.75 58.32-24.9 60.05-25.05 61.55-25.05ZM61.25-5.9L61.25-5.9Q64.34-5.9 65.9-6.68 67.45-7.45 67.5-9.15L67.5-9.15 67.5-10.4 61.84-10.4Q59.65-10.4 58.77-9.78 57.9-9.15 57.9-8.1L57.9-8.1Q57.9-6.85 58.8-6.38 59.7-5.9 61.25-5.9ZM103.19-24.8L103.19-24.65 95.24-0.45 85.24-0.45 77.74-24.7 77.74-24.8 86.74-24.8Q87.79-20.9 88.72-16.35 89.64-11.8 90.39-7.6L90.39-7.6 90.59-7.6Q91.34-11.8 92.27-16.35 93.19-20.9 94.24-24.8L94.24-24.8 103.19-24.8ZM128.14-6.8L128.14-1.25Q126.74-0.75 124.27-0.38 121.79 0 118.39 0L118.39 0Q114.09 0 111.07-1.13 108.04-2.25 106.49-4.98 104.94-7.7 104.94-12.55L104.94-12.55Q104.94-19.15 107.97-22.1 110.99-25.05 117.34-25.05L117.34-25.05Q121.89-25.05 124.52-23.75 127.14-22.45 128.27-20.08 129.39-17.7 129.39-14.45L129.39-14.45Q129.39-13.5 129.31-12.4 129.24-11.3 129.04-10.25L129.04-10.25 128.84-10.05 112.39-10.05Q112.74-7.85 114.47-7.15 116.19-6.45 120.09-6.45L120.09-6.45Q122.69-6.45 124.42-6.58 126.14-6.7 127.94-6.95L127.94-6.95 128.14-6.8ZM112.24-15.3L122.44-15.3Q122.44-16.5 122.07-17.38 121.69-18.25 120.59-18.73 119.49-19.2 117.34-19.2L117.34-19.2Q114.19-19.2 113.22-18.13 112.24-17.05 112.24-15.3L112.24-15.3ZM141.64-34.1L141.64-0.45 133.64-0.45 133.64-34.1 141.64-34.1Z" fill="black"></path><path d="M182.69-2.05L174.09-2.05Q173.24-4.75 172.36-7.8 171.49-10.85 170.64-13.85 169.79-16.85 169.09-19.45 168.39-22.05 167.89-23.95 167.39-25.85 167.19-26.65L167.19-26.65 166.99-26.6Q167.14-25.7 167.24-24.23 167.34-22.75 167.39-21.13 167.44-19.5 167.44-18.15L167.44-18.15 167.44-0.45 159.79-0.45 159.79-32.1 173.19-32.1Q173.89-29.45 174.66-26.53 175.44-23.6 176.21-20.73 176.99-17.85 177.59-15.28 178.19-12.7 178.44-10.8L178.44-10.8 178.54-10.8Q178.79-12.7 179.36-15.25 179.94-17.8 180.69-20.7 181.44-23.6 182.24-26.53 183.04-29.45 183.69-32.1L183.69-32.1 196.89-32.1 196.89-0.45 189.34-0.45 189.34-18.15Q189.34-19.5 189.39-21.13 189.44-22.75 189.56-24.23 189.69-25.7 189.79-26.6L189.79-26.6 189.59-26.65Q189.39-25.85 188.89-23.95 188.39-22.05 187.66-19.43 186.94-16.8 186.09-13.8 185.24-10.8 184.36-7.78 183.49-4.75 182.69-2.05L182.69-2.05ZM212.29-25.05L212.29-25.05Q217.09-25.05 220.04-24.05 222.99-23.05 224.36-20.38 225.74-17.7 225.74-12.65L225.74-12.65 225.74-0.45 218.49-0.45 218.24-2.75 218.09-2.75Q217.14-1.5 215.14-0.75 213.14 0 209.94 0L209.94 0Q201.29 0 201.29-8.1L201.29-8.1Q201.29-11.55 203.56-13.53 205.84-15.5 210.74-15.5L210.74-15.5 218.14-15.5Q217.79-17.6 216.34-18.32 214.89-19.05 211.39-19.05L211.39-19.05Q209.19-19.05 207.06-18.73 204.94-18.4 203.34-18L203.34-18 203.19-18.1 203.24-23.9Q204.24-24.2 205.79-24.48 207.34-24.75 209.06-24.9 210.79-25.05 212.29-25.05ZM211.99-5.9L211.99-5.9Q215.09-5.9 216.64-6.68 218.19-7.45 218.24-9.15L218.24-9.15 218.24-10.4 212.59-10.4Q210.39-10.4 209.51-9.78 208.64-9.15 208.64-8.1L208.64-8.1Q208.64-6.85 209.54-6.38 210.44-5.9 211.99-5.9ZM231.48-7.75L231.48-7.75 231.48-18.25 228.48-18.25 228.48-24.75 232.23-24.75 233.73-30.7 239.48-30.7 239.48-24.75 244.93-24.75 244.93-18.25 239.48-18.25 239.48-9.5Q239.48-8.1 239.83-7.58 240.18-7.05 241.43-7.05L241.43-7.05Q242.23-7.05 243.13-7.13 244.03-7.2 244.93-7.3L244.93-7.3 245.08-7.2 245.08-0.7Q242.68 0 238.73 0L238.73 0Q234.78 0 233.13-1.8 231.48-3.6 231.48-7.75ZM271.03-6.8L271.03-1.25Q269.63-0.75 267.16-0.38 264.68 0 261.28 0L261.28 0Q256.98 0 253.96-1.13 250.93-2.25 249.38-4.98 247.83-7.7 247.83-12.55L247.83-12.55Q247.83-19.15 250.86-22.1 253.88-25.05 260.23-25.05L260.23-25.05Q264.78-25.05 267.41-23.75 270.03-22.45 271.16-20.08 272.28-17.7 272.28-14.45L272.28-14.45Q272.28-13.5 272.21-12.4 272.13-11.3 271.93-10.25L271.93-10.25 271.73-10.05 255.28-10.05Q255.63-7.85 257.36-7.15 259.08-6.45 262.98-6.45L262.98-6.45Q265.58-6.45 267.31-6.58 269.03-6.7 270.83-6.95L270.83-6.95 271.03-6.8ZM255.13-15.3L265.33-15.3Q265.33-16.5 264.96-17.38 264.58-18.25 263.48-18.73 262.38-19.2 260.23-19.2L260.23-19.2Q257.08-19.2 256.11-18.13 255.13-17.05 255.13-15.3L255.13-15.3Z" fill="white"></path></g></svg></g></svg></g><g transform="matrix(1,0,0,1,0,60.666825988471615)"><svg viewBox="0 0 330.65472 26.511719895309707" height="26.511719895309707" width="330.65472"><g transform="matrix(1,0,0,1,0,0)"><svg width="330.65472" viewBox="2.64 -36.08 587.61 47.12" height="26.511719895309707" data-palette-color="url(#40ba232e-42f0-4bef-a928-3b7f780d8355)"><path d="M22.09-34.01L23.12-34.01Q27.49-34.01 27.49-29.1L27.49-29.1Q27.49-27.81 26.93-27.81L26.93-27.81Q26.61-27.81 25.43-28.53 24.24-29.25 23.46-29.52L23.46-29.52Q20-30.71 17.31-30.71 14.62-30.71 13.62-29.39L13.62-29.39Q12.23-27.56 12.23-22.66L12.23-22.66Q12.23-20.9 13.43-20.04 14.62-19.19 16.17-19.19 17.72-19.19 19.32-20.25 20.92-21.31 20.95-21.31L20.95-21.31Q22.17-21.31 22.62-20.36 23.07-19.41 23.07-17.26L23.07-17.26Q23.07-13.48 21.34-13.48L21.34-13.48Q20.87-13.48 19.41-14.66 17.94-15.84 16.31-15.84L16.31-15.84Q13.5-15.84 12.57-14.65L12.57-14.65Q11.96-13.87 11.96-9.96 11.96-6.05 13.35-4.25L13.35-4.25Q14.14-3.25 17.09-3.25 20.04-3.25 23.97-4.52L23.97-4.52Q25.07-4.86 25.73-5.32 26.39-5.79 27.08-6.31 27.76-6.84 27.93-6.84L27.93-6.84Q28.76-6.84 28.76-6.01L28.76-6.01 28.76-5.22Q28.76-3.34 28.11-2.14 27.47-0.93 26.93-0.59L26.93-0.59Q25.93 0.05 18.97 0.05L18.97 0.05 15.75 0.05 14.67 0.02Q5.47 0.02 4.05-0.18 2.64-0.39 2.64-1.27L2.64-1.27Q2.64-1.83 3.96-2.69 5.27-3.54 5.66-4.83 6.05-6.13 6.05-14.97L6.05-14.97 6.15-24.51Q6.15-29.2 5.57-30.32L5.57-30.32Q5.3-30.83 4.05-31.49 2.81-32.15 2.81-32.67L2.81-32.67Q2.81-33.64 4.39-33.89L4.39-33.89Q5.05-33.98 14.77-33.98L14.77-33.98 22.09-34.01ZM47.51-2.17L47.51-2.17Q47.51-3.56 45.14-6.86L45.14-6.86Q44.06-8.35 43.82-8.35L43.82-8.35Q43.14-8.35 42.01-6.91L42.01-6.91Q39.82-4.13 39.82-2.88L39.82-2.88Q39.82-2.39 40.18-1.62 40.55-0.85 40.55-0.76L40.55-0.76Q40.55 0.07 37.28 0.07L37.28 0.07 36.52 0.05 35.76 0.05Q32.2 0.05 32.2-0.85L32.2-0.85Q32.2-1.56 33.88-2.53 35.57-3.49 37.08-5.3L37.08-5.3Q41.4-10.47 41.4-11.4L41.4-11.4Q41.4-12.67 36.81-18.31L36.81-18.31Q35.86-19.48 34.26-20.63 32.66-21.78 32.66-22.22L32.66-22.22Q32.66-23.34 39.74-23.34L39.74-23.34 40.48-23.34Q42.55-23.34 42.55-22.34L42.55-22.34Q42.19-21.24 42.19-21.09L42.19-21.09Q42.19-19.73 43.71-17.6 45.24-15.48 45.48-15.48L45.48-15.48Q46.14-15.48 47.7-17.42 49.27-19.36 49.27-20.09 49.27-20.83 48.91-21.51 48.56-22.19 48.56-22.49L48.56-22.49Q48.56-23.27 52.57-23.27 56.59-23.27 56.59-22.19L56.59-22.19Q56.59-21.48 54.92-20.63 53.24-19.78 52.1-18.46L52.1-18.46Q47.87-13.62 47.87-12.38L47.87-12.38Q47.87-10.74 53.42-4.37L53.42-4.37Q54.37-3.27 55.73-2.53 57.1-1.78 57.1-1L57.1-1Q57.1-0.07 52.15-0.07L52.15-0.07 50.61-0.02 49.07-0.02Q47.07-0.02 47.07-1L47.07-1Q47.51-1.95 47.51-2.17ZM79.41-10.89L79.41-10.89 79.41-12.33Q79.41-16.26 77.8-18.6 76.19-20.95 73.75-20.95L73.75-20.95 73.51-20.95Q72.16-20.95 70.89-20.2 69.62-19.46 68.95-18.31 68.28-17.16 68.28-11.55L68.28-11.55 68.28-9.47 68.31-9.2 68.31-8.18 68.33-7.93 68.33-7.42Q68.38-6.88 68.38-6.64L68.38-6.64Q68.38-4.57 69.71-3.41 71.04-2.25 73.29-2.25L73.29-2.25 73.53-2.25Q76.22-2.25 77.81-4.71 79.41-7.18 79.41-10.89ZM69.65-0.39Q68.38-0.39 68.38 2.89 68.38 6.18 68.85 7.07 69.33 7.96 70.39 8.69 71.45 9.42 71.45 9.94L71.45 9.94Q71.45 11.04 68.28 11.04L68.28 11.04 65.84 11.04Q60.27 11.04 60.27 9.91L60.27 9.91Q60.27 9.57 61.69 8.2L61.69 8.2Q62.45 7.47 62.89 5.24 63.33 3 63.33-3.22L63.33-3.22 63.33-13.35 63.28-15.97Q63.28-18.36 62.64-19.46L62.64-19.46Q62.4-19.87 61.37-20.59 60.35-21.31 60.35-21.83 60.35-22.34 60.93-22.63L60.93-22.63Q62.84-23.56 65.96-23.56L65.96-23.56Q66.77-23.56 67.61-22.58 68.45-21.61 68.55-21.61L68.55-21.61Q68.94-21.61 70.12-22.28 71.31-22.95 71.38-23L71.38-23Q73.48-23.97 75.02-23.97L75.02-23.97 76.29-23.97Q77.66-23.97 79.39-23.22L79.39-23.22Q82.71-21.78 84.15-17.82L84.15-17.82Q85-15.5 85-13.31L85-13.31 85-11.94Q85-9.67 84.08-7.28L84.08-7.28Q82.25-2.54 77.88-0.83L77.88-0.83Q76.02-0.1 73.55-0.1L73.55-0.1 69.65-0.39ZM89.54-0.85L89.54-0.85Q89.54-1.37 90.65-2.17 91.76-2.98 92.16-4.7 92.55-6.42 92.55-17.77 92.55-29.13 92.29-30.64 92.03-32.15 91.03-32.81L91.03-32.81Q89.42-33.86 89.42-34.11L89.42-34.11 89.42-34.4Q89.42-34.81 90.13-35.13L90.13-35.13Q92.33-36.08 95.99-36.08L95.99-36.08 96.48-36.08Q97.72-36.08 97.92-34.4L97.92-34.4Q97.94-34.18 97.94-30.71L97.94-30.71 97.94-25.46 97.92-24.46 97.92-22.92 97.89-21.92Q97.89-21.92 97.89-14.18L97.89-14.18Q97.89-6.96 98.12-5.24 98.36-3.52 99.21-2.73L99.21-2.73Q99.31-2.66 100.24-2.1 101.16-1.54 101.16-0.95L101.16-0.95Q101.16-0.1 98.14-0.1L98.14-0.1 97.14-0.05 96.14-0.05 92.13 0.02 91.62 0.02Q89.54 0.02 89.54-0.85ZM110.2-12.57L110.2-12.57 110.2-11.67Q110.2-7.52 111.81-4.79L111.81-4.79Q112.56-3.49 113.74-2.73 114.91-1.98 116.1-1.98L116.1-1.98 116.59-1.98Q118.81-1.98 120.44-4.14 122.06-6.3 122.06-10.28L122.06-10.28 122.06-12.01Q122.06-15.94 120.44-18.69 118.81-21.44 116.32-21.44L116.32-21.44 115.57-21.44Q113.32-21.44 111.76-19.02 110.2-16.6 110.2-12.57ZM127.94-12.48L127.94-12.48 127.94-11.25Q127.94-9.33 127.16-7.03L127.16-7.03Q125.53-2.25 120.64-0.34L120.64-0.34Q118.52 0.49 116.54 0.49L116.54 0.49 115.74 0.49Q111.07 0.49 107.95-2.64L107.95-2.64Q106.53-4.05 105.65-6.37 104.78-8.69 104.78-11.3L104.78-11.3 104.78-11.72Q104.78-14.09 105.61-16.5L105.61-16.5Q107.22-21.22 111.93-23.05L111.93-23.05Q114.05-23.88 116.01-23.88L116.01-23.88 117.23-23.88Q119.4-23.88 121.5-22.9L121.5-22.9Q125.48-21.04 127.04-16.99L127.04-16.99Q127.94-14.6 127.94-12.48ZM144.49-0.95L144.49-0.95Q144.49 0 140.08 0L140.08 0 137.49 0 136.46-0.05 134.92-0.07Q132.34-0.07 132.34-1L132.34-1Q132.34-1.66 133.5-2.4 134.66-3.15 135.06-4.33 135.46-5.52 135.46-11.33 135.46-17.14 135.08-18.38 134.7-19.63 133.9-20.17L133.9-20.17Q132.46-21.12 132.46-21.56 132.46-22 132.97-22.34L132.97-22.34Q134.48-23.36 138.1-23.36L138.1-23.36 138.56-23.36Q139.95-23.36 140.54-21.96 141.13-20.56 141.49-20.56 141.86-20.56 142.75-21.24 143.64-21.92 144.9-22.61 146.15-23.29 147.69-23.29 149.23-23.29 150.05-22.5 150.87-21.7 150.87-20.46L150.87-20.46Q150.84-19.19 150.21-18.55 149.57-17.92 148.84-17.92 148.11-17.92 146.91-18.52 145.72-19.12 144.91-19.12 144.1-19.12 143.15-18.44 142.2-17.77 141.53-16.05 140.86-14.33 140.86-10.17 140.86-6.01 141.44-4.8 142.03-3.59 143.26-2.59 144.49-1.59 144.49-0.95ZM169.2-15.87L169.2-15.87 169.2-16.63Q169.2-18.43 167.9-19.89 166.61-21.34 164.73-21.34L164.73-21.34 164.27-21.34Q163.93-21.29 163.8-21.29L163.8-21.29Q162.09-21.29 160.57-19.34 159.04-17.38 159.04-15.16L159.04-15.16 159.04-14.84Q159.04-14.06 159.97-14.06L159.97-14.06Q160.34-13.99 160.36-13.99L160.36-13.99 160.92-13.96 161.07-13.96 161.24-13.99 165.95-14.26 166.83-14.36Q169.2-14.36 169.2-15.87ZM159.04-9.4L159.04-9.4Q159.04-6.62 161.14-4.74 163.24-2.86 166.46-2.86L166.46-2.86Q167.76-2.86 168.82-3.23 169.88-3.61 171.14-4.15 172.4-4.69 172.71-4.69L172.71-4.69Q173.69-4.69 173.69-3.64L173.69-3.64Q173.69-2.22 170.08-0.61L170.08-0.61Q167.73 0.44 165.05 0.44L165.05 0.44 164.51 0.44Q159.92 0.44 156.89-2.34L156.89-2.34Q155.26-3.86 154.36-6.21 153.45-8.57 153.45-11.28L153.45-11.28 153.48-11.84 153.48-12.4Q153.48-14.75 154.55-17.02L154.55-17.02Q155.65-19.29 157.16-20.75L157.16-20.75Q160.36-23.83 164.76-23.85L164.76-23.85Q171.4-23.85 173.59-18.68L173.59-18.68Q174.28-17.04 174.28-15.67L174.28-15.67 174.28-15.19Q174.28-13.5 172.89-12.93 171.49-12.35 166.32-11.99 161.14-11.62 160.7-11.5L160.7-11.5Q159.04-11.08 159.04-9.4ZM212.48-10.45L212.48-10.45Q212.82-10.45 217.22-19.93 221.61-29.42 222.64-30.98 223.66-32.54 225-33.09 226.35-33.64 229.29-33.64 232.23-33.64 232.23-32.28L232.23-32.28 231.65-31.54 230.89-30.74Q230.16-29.79 229.85-28.53 229.55-27.27 229.55-24.39L229.55-24.39Q229.55-12.13 230.18-6.52L230.18-6.52Q230.42-4.32 231.77-3.06 233.11-1.81 233.11-1.39L233.11-1.39 232.5-0.95Q231.33-0.42 227.89-0.42 224.44-0.42 223.56-1.32L223.56-1.32 223.32-1.86Q223.32-2.56 223.86-4.77 224.39-6.98 224.39-9.18L224.39-9.18Q224.39-25.2 223.37-25.2L223.37-25.2Q222.86-25.2 218.71-15.28 214.56-5.37 213.62-3.65 212.68-1.93 211.14-1.93L211.14-1.93Q210.06-1.93 205.27-13.66 200.47-25.39 199.64-25.39L199.64-25.39Q198.95-25.39 198.95-13.4L198.95-13.4Q198.95-8.08 199.13-6.86 199.3-5.64 199.7-3.93 200.1-2.22 200.1-1.66 200.1-1.1 199.35-0.73 198.59-0.37 197.39-0.37L197.39-0.37 196.05-0.37Q192.02-0.37 192.02-1.39L192.02-1.39Q192.02-1.9 193.4-3.09 194.78-4.27 195.01-5.14 195.24-6.01 195.63-13.93 196.02-21.85 196.02-24.68 196.02-27.51 195.68-28.63 195.34-29.74 194.11-30.96 192.88-32.18 192.88-32.81L192.88-32.81Q192.88-33.59 197.39-33.59L197.39-33.59Q199.13-33.59 200.4-33.12 201.66-32.64 202.9-30.85 204.13-29.05 208.06-19.75 211.99-10.45 212.48-10.45ZM243.12-12.57L243.12-12.57 243.12-11.67Q243.12-7.52 244.73-4.79L244.73-4.79Q245.49-3.49 246.66-2.73 247.83-1.98 249.03-1.98L249.03-1.98 249.51-1.98Q251.74-1.98 253.36-4.14 254.98-6.3 254.98-10.28L254.98-10.28 254.98-12.01Q254.98-15.94 253.36-18.69 251.74-21.44 249.25-21.44L249.25-21.44 248.49-21.44Q246.24-21.44 244.68-19.02 243.12-16.6 243.12-12.57ZM260.87-12.48L260.87-12.48 260.87-11.25Q260.87-9.33 260.08-7.03L260.08-7.03Q258.45-2.25 253.57-0.34L253.57-0.34Q251.44 0.49 249.46 0.49L249.46 0.49 248.66 0.49Q244 0.49 240.87-2.64L240.87-2.64Q239.46-4.05 238.58-6.37 237.7-8.69 237.7-11.3L237.7-11.3 237.7-11.72Q237.7-14.09 238.53-16.5L238.53-16.5Q240.14-21.22 244.85-23.05L244.85-23.05Q246.97-23.88 248.93-23.88L248.93-23.88 250.15-23.88Q252.32-23.88 254.42-22.9L254.42-22.9Q258.4-21.04 259.96-16.99L259.96-16.99Q260.87-14.6 260.87-12.48ZM277.42-0.95L277.42-0.95Q277.42 0 273 0L273 0 270.41 0 269.38-0.05 267.85-0.07Q265.26-0.07 265.26-1L265.26-1Q265.26-1.66 266.42-2.4 267.58-3.15 267.98-4.33 268.38-5.52 268.38-11.33 268.38-17.14 268-18.38 267.63-19.63 266.82-20.17L266.82-20.17Q265.38-21.12 265.38-21.56 265.38-22 265.89-22.34L265.89-22.34Q267.41-23.36 271.02-23.36L271.02-23.36 271.48-23.36Q272.88-23.36 273.46-21.96 274.05-20.56 274.41-20.56 274.78-20.56 275.67-21.24 276.56-21.92 277.82-22.61 279.08-23.29 280.61-23.29 282.15-23.29 282.97-22.5 283.79-21.7 283.79-20.46L283.79-20.46Q283.76-19.19 283.13-18.55 282.49-17.92 281.76-17.92 281.03-17.92 279.83-18.52 278.64-19.12 277.83-19.12 277.03-19.12 276.07-18.44 275.12-17.77 274.45-16.05 273.78-14.33 273.78-10.17 273.78-6.01 274.36-4.8 274.95-3.59 276.18-2.59 277.42-1.59 277.42-0.95ZM302.12-15.87L302.12-15.87 302.12-16.63Q302.12-18.43 300.83-19.89 299.53-21.34 297.65-21.34L297.65-21.34 297.19-21.34Q296.85-21.29 296.73-21.29L296.73-21.29Q295.02-21.29 293.49-19.34 291.96-17.38 291.96-15.16L291.96-15.16 291.96-14.84Q291.96-14.06 292.89-14.06L292.89-14.06Q293.26-13.99 293.28-13.99L293.28-13.99 293.84-13.96 293.99-13.96 294.16-13.99 298.87-14.26 299.75-14.36Q302.12-14.36 302.12-15.87ZM291.96-9.4L291.96-9.4Q291.96-6.62 294.06-4.74 296.16-2.86 299.39-2.86L299.39-2.86Q300.68-2.86 301.74-3.23 302.8-3.61 304.06-4.15 305.32-4.69 305.64-4.69L305.64-4.69Q306.61-4.69 306.61-3.64L306.61-3.64Q306.61-2.22 303-0.61L303-0.61Q300.66 0.44 297.97 0.44L297.97 0.44 297.43 0.44Q292.84 0.44 289.82-2.34L289.82-2.34Q288.18-3.86 287.28-6.21 286.37-8.57 286.37-11.28L286.37-11.28 286.4-11.84 286.4-12.4Q286.4-14.75 287.47-17.02L287.47-17.02Q288.57-19.29 290.08-20.75L290.08-20.75Q293.28-23.83 297.68-23.85L297.68-23.85Q304.32-23.85 306.52-18.68L306.52-18.68Q307.2-17.04 307.2-15.67L307.2-15.67 307.2-15.19Q307.2-13.5 305.81-12.93 304.42-12.35 299.24-11.99 294.06-11.62 293.62-11.5L293.62-11.5Q291.96-11.08 291.96-9.4ZM319.6-2.22L319.6-2.22 319.6-1.42Q319.6 1.27 317.79 3.88L317.79 3.88Q315.33 7.45 313.42 7.45L313.42 7.45 313.28 7.45Q312.42 7.45 312.42 6.64L312.42 6.64 312.42 6.49 314.2 4.17Q315.23 2.83 315.23 1.37L315.23 1.37Q315.23 0.95 313.89-0.39 312.54-1.73 312.54-3 312.54-4.27 313.39-5.2 314.23-6.13 315.57-6.13L315.57-6.13 316.18-6.13Q317.72-6.13 318.66-5.09 319.6-4.05 319.6-2.22ZM337.71-32.84Q338.61-33.69 340.58-33.69 342.54-33.69 343.72-33.25L343.72-33.25Q345.91-32.47 346.42-28.98L346.42-28.98Q346.67-27.2 347.95-21.75 349.23-16.31 350.12-13.76 351.01-11.21 352.24-11.21 353.46-11.21 354.96-16.19 356.46-21.17 356.46-25.12L356.46-25.12Q356.46-26.39 356.19-27.51L356.19-27.51 355.9-28.52 355.65-29.47Q355.65-31.25 357.03-32.19 358.41-33.13 360.33-33.13 362.25-33.13 363.72-31.99 365.2-30.86 365.2-29.42L365.2-29.42 365.08-28.47 364.91-27.51Q364.91-23.8 368.79-13.31L368.79-13.31Q369.52-11.3 370.44-11.3 371.35-11.3 371.84-12.1 372.33-12.89 373.95-18.68 375.58-24.46 375.83-27.95 376.09-31.45 376.16-31.69L376.16-31.69Q376.77-33.67 379.99-33.67L379.99-33.67Q381.61-33.67 382.26-33.09 382.92-32.52 382.92-31.7 382.92-30.88 381.43-28.54 379.95-26.2 379.16-23.9L379.16-23.9 377.85-19.85Q377.46-18.68 376.99-17.11L376.99-17.11 376.16-14.4Q373.33-5.52 372.45-3.91L372.45-3.91Q371.03-1.34 369.37-1.34L369.37-1.34Q367.49-1.34 366.08-4.59L366.08-4.59Q365.37-6.23 363.31-12.83 361.24-19.43 360.78-20.61L360.78-20.61 360.32-21.61Q359.76-21.61 357.25-14.1 354.75-6.59 353.8-4.52L353.8-4.52Q352.31-1.27 350.5-1.27 348.7-1.27 347.38-3.91L347.38-3.91Q346.79-5.1 344.19-13.67 341.59-22.24 340.85-24.29 340.1-26.34 338.67-28.78 337.25-31.23 337.25-31.81 337.25-32.4 337.71-32.84L337.71-32.84ZM390.64-12.57L390.64-12.57 390.64-11.67Q390.64-7.52 392.25-4.79L392.25-4.79Q393-3.49 394.18-2.73 395.35-1.98 396.54-1.98L396.54-1.98 397.03-1.98Q399.25-1.98 400.88-4.14 402.5-6.3 402.5-10.28L402.5-10.28 402.5-12.01Q402.5-15.94 400.88-18.69 399.25-21.44 396.76-21.44L396.76-21.44 396.01-21.44Q393.76-21.44 392.2-19.02 390.64-16.6 390.64-12.57ZM408.39-12.48L408.39-12.48 408.39-11.25Q408.39-9.33 407.6-7.03L407.6-7.03Q405.97-2.25 401.09-0.34L401.09-0.34Q398.96 0.49 396.98 0.49L396.98 0.49 396.18 0.49Q391.52 0.49 388.39-2.64L388.39-2.64Q386.97-4.05 386.1-6.37 385.22-8.69 385.22-11.3L385.22-11.3 385.22-11.72Q385.22-14.09 386.05-16.5L386.05-16.5Q387.66-21.22 392.37-23.05L392.37-23.05Q394.49-23.88 396.45-23.88L396.45-23.88 397.67-23.88Q399.84-23.88 401.94-22.9L401.94-22.9Q405.92-21.04 407.48-16.99L407.48-16.99Q408.39-14.6 408.39-12.48ZM424.94-0.95L424.94-0.95Q424.94 0 420.52 0L420.52 0 417.93 0 416.9-0.05 415.37-0.07Q412.78-0.07 412.78-1L412.78-1Q412.78-1.66 413.94-2.4 415.1-3.15 415.5-4.33 415.9-5.52 415.9-11.33 415.9-17.14 415.52-18.38 415.15-19.63 414.34-20.17L414.34-20.17Q412.9-21.12 412.9-21.56 412.9-22 413.41-22.34L413.41-22.34Q414.93-23.36 418.54-23.36L418.54-23.36 419-23.36Q420.39-23.36 420.98-21.96 421.57-20.56 421.93-20.56 422.3-20.56 423.19-21.24 424.08-21.92 425.34-22.61 426.6-23.29 428.13-23.29 429.67-23.29 430.49-22.5 431.31-21.7 431.31-20.46L431.31-20.46Q431.28-19.19 430.65-18.55 430.01-17.92 429.28-17.92 428.55-17.92 427.35-18.52 426.16-19.12 425.35-19.12 424.54-19.12 423.59-18.44 422.64-17.77 421.97-16.05 421.3-14.33 421.3-10.17 421.3-6.01 421.88-4.8 422.47-3.59 423.7-2.59 424.94-1.59 424.94-0.95ZM446.73-0.95L446.73-0.95Q446.73 0 442.32 0L442.32 0 439.73 0 438.7-0.05 437.16-0.07Q434.58-0.07 434.58-1L434.58-1Q434.58-1.66 435.74-2.4 436.9-3.15 437.3-4.33 437.7-5.52 437.7-11.33 437.7-17.14 437.32-18.38 436.94-19.63 436.14-20.17L436.14-20.17Q434.7-21.12 434.7-21.56 434.7-22 435.21-22.34L435.21-22.34Q436.73-23.36 440.34-23.36L440.34-23.36 440.8-23.36Q442.19-23.36 442.78-21.96 443.37-20.56 443.73-20.56 444.1-20.56 444.99-21.24 445.88-21.92 447.14-22.61 448.4-23.29 449.93-23.29 451.47-23.29 452.29-22.5 453.11-21.7 453.11-20.46L453.11-20.46Q453.08-19.19 452.45-18.55 451.81-17.92 451.08-17.92 450.35-17.92 449.15-18.52 447.96-19.12 447.15-19.12 446.34-19.12 445.39-18.44 444.44-17.77 443.77-16.05 443.1-14.33 443.1-10.17 443.1-6.01 443.68-4.8 444.27-3.59 445.5-2.59 446.73-1.59 446.73-0.95ZM464.16-20.21L464.16-20.21Q464.16-17.6 468.22-7.81L468.22-7.81Q468.78-6.45 469.12-6.45 469.46-6.45 470.39-8.42L470.39-8.42Q473.76-15.55 473.76-19.19L473.76-19.19Q473.76-20.24 473.42-20.9L473.42-20.9 473.15-21.34Q472.56-22.12 472.56-22.44L472.56-22.44Q472.56-23.39 475.66-23.39L475.66-23.39 477.23-23.39Q480.18-23.39 480.18-22.27L480.18-22.27Q480.18-21.63 478.97-20.32 477.76-19.02 477.23-17.8 476.69-16.58 473.31-7.6 469.93 1.37 468.07 4.65 466.21 7.93 464.62 9.38 463.02 10.82 461.33 10.82L461.33 10.82 460.7 10.82Q459.43 10.82 458.54 10.1 457.65 9.38 457.65 8.61 457.65 7.84 458.27 7.36 458.89 6.88 459.92 6.88L459.92 6.88 460.48 6.93Q460.84 6.96 461.6 6.96L461.6 6.96Q463.31 6.96 464.75 4.76 466.19 2.56 466.19 0.32 466.19-1.93 459.23-16.65L459.23-16.65Q458.6-17.99 457.36-19.43 456.13-20.87 456.13-21.44L456.13-21.44Q456.13-22.36 457.43-22.74 458.72-23.12 461.59-23.12 464.46-23.12 464.46-21.88L464.46-21.88Q464.16-20.61 464.16-20.21ZM512.52 0.05L512.52 0.05 511.79 0.05 511.06 0.02 507.42 0.02Q498.75 0.02 498.07-0.1L498.07-0.1Q496.8-0.32 496.8-1.17L496.8-1.17Q496.8-1.54 498.13-2.47 499.46-3.39 499.86-5.14 500.27-6.88 500.27-17.97 500.27-29.05 499.99-30.02 499.71-30.98 498.56-31.47L498.56-31.47Q496.75-32.25 496.75-33.13 496.75-34.01 499.49-34.01L499.49-34.01 500.95-34.01 501.66-33.98 503.86-33.96Q509.76-33.96 509.76-33.08L509.76-33.08Q509.76-32.79 508.03-31.1L508.03-31.1Q507.05-30.15 506.63-27.84 506.2-25.54 506.2-15.55 506.2-5.57 506.51-4.64 506.81-3.71 507.93-3.34L507.93-3.34Q508.62-3.13 510.62-3.13L510.62-3.13Q514.94-3.13 517.09-4.25L517.09-4.25Q518.31-4.88 519.73-6.86 521.14-8.84 521.93-8.84 522.73-8.84 522.73-7.81L522.73-7.81 522.73-7.18Q522.73-1.81 521.41-0.61L521.41-0.61Q520.68 0.05 512.52 0.05ZM541.11-15.87L541.11-15.87 541.11-16.63Q541.11-18.43 539.82-19.89 538.52-21.34 536.64-21.34L536.64-21.34 536.18-21.34Q535.84-21.29 535.71-21.29L535.71-21.29Q534.01-21.29 532.48-19.34 530.95-17.38 530.95-15.16L530.95-15.16 530.95-14.84Q530.95-14.06 531.88-14.06L531.88-14.06Q532.25-13.99 532.27-13.99L532.27-13.99 532.83-13.96 532.98-13.96 533.15-13.99 537.86-14.26 538.74-14.36Q541.11-14.36 541.11-15.87ZM530.95-9.4L530.95-9.4Q530.95-6.62 533.05-4.74 535.15-2.86 538.38-2.86L538.38-2.86Q539.67-2.86 540.73-3.23 541.79-3.61 543.05-4.15 544.31-4.69 544.63-4.69L544.63-4.69Q545.6-4.69 545.6-3.64L545.6-3.64Q545.6-2.22 541.99-0.61L541.99-0.61Q539.64 0.44 536.96 0.44L536.96 0.44 536.42 0.44Q531.83 0.44 528.8-2.34L528.8-2.34Q527.17-3.86 526.27-6.21 525.36-8.57 525.36-11.28L525.36-11.28 525.39-11.84 525.39-12.4Q525.39-14.75 526.46-17.02L526.46-17.02Q527.56-19.29 529.07-20.75L529.07-20.75Q532.27-23.83 536.67-23.85L536.67-23.85Q543.31-23.85 545.5-18.68L545.5-18.68Q546.19-17.04 546.19-15.67L546.19-15.67 546.19-15.19Q546.19-13.5 544.8-12.93 543.4-12.35 538.23-11.99 533.05-11.62 532.61-11.5L532.61-11.5Q530.95-11.08 530.95-9.4ZM566.45-10.96Q568.38-9.13 568.38-6.34 568.38-3.54 566.08-1.55 563.79 0.44 559.74 0.44L559.74 0.44 559.08 0.44Q554.46 0.44 552.04-0.71L552.04-0.71Q550.7-1.34 550.7-3.54L550.7-3.54 550.7-4.15Q550.7-6.96 551.75-6.96L551.75-6.96Q552.63-6.96 553.83-5.31 555.02-3.66 555.83-3.1L555.83-3.1Q557.39-2.03 559.5-2.03 561.61-2.03 562.62-2.92 563.62-3.81 563.62-5.27 563.62-6.74 561.91-7.98L561.91-7.98Q561-8.64 557.7-10.06 554.39-11.47 552.75-13.02 551.12-14.58 551.12-17.41 551.12-20.24 553.49-22.01 555.85-23.78 559.32-23.78L559.32-23.78 559.98-23.78Q564.52-23.78 566.35-22.71L566.35-22.71Q567.3-22.14 567.3-19.58 567.3-17.02 566.08-17.02L566.08-17.02Q565.4-17.02 564.22-18.54 563.03-20.07 562.05-20.72 561.08-21.36 559.36-21.36 557.64-21.36 556.63-20.58 555.63-19.8 555.63-18.32 555.63-16.85 557.46-15.67L557.46-15.67Q557.93-15.36 561.52-13.79 565.11-12.23 566.45-10.96L566.45-10.96ZM588.32-10.96Q590.25-9.13 590.25-6.34 590.25-3.54 587.96-1.55 585.66 0.44 581.61 0.44L581.61 0.44 580.95 0.44Q576.33 0.44 573.92-0.71L573.92-0.71Q572.57-1.34 572.57-3.54L572.57-3.54 572.57-4.15Q572.57-6.96 573.62-6.96L573.62-6.96Q574.5-6.96 575.7-5.31 576.9-3.66 577.7-3.1L577.7-3.1Q579.26-2.03 581.38-2.03 583.49-2.03 584.49-2.92 585.49-3.81 585.49-5.27 585.49-6.74 583.78-7.98L583.78-7.98Q582.88-8.64 579.57-10.06 576.26-11.47 574.63-13.02 572.99-14.58 572.99-17.41 572.99-20.24 575.36-22.01 577.73-23.78 581.19-23.78L581.19-23.78 581.85-23.78Q586.39-23.78 588.22-22.71L588.22-22.71Q589.18-22.14 589.18-19.58 589.18-17.02 587.96-17.02L587.96-17.02Q587.27-17.02 586.09-18.54 584.9-20.07 583.93-20.72 582.95-21.36 581.23-21.36 579.51-21.36 578.51-20.58 577.51-19.8 577.51-18.32 577.51-16.85 579.34-15.67L579.34-15.67Q579.8-15.36 583.39-13.79 586.98-12.23 588.32-10.96L588.32-10.96Z" opacity="1" transform="matrix(1,0,0,1,0,0)" fill="white" class="slogan-text-1" id="SvgjsPath1332"></path></svg></g></svg></g></svg></g></svg></g><g><svg viewBox="0 0 215.112992823235 215.112992823235" height="215.112992823235" width="215.112992823235"><g><svg></svg></g><g id="SvgjsG1331"><svg viewBox="0 0 215.112992823235 215.112992823235" height="215.112992823235" width="215.112992823235"><g><path d="M0 107.556c0-59.402 48.155-107.556 107.556-107.556 59.402 0 107.556 48.155 107.557 107.556 0 59.402-48.155 107.556-107.556 107.557-59.402 0-107.556-48.155-107.557-107.556zM107.556 210.687c56.957 0 103.13-46.173 103.131-103.131 0-56.957-46.173-103.13-103.13-103.13-56.957 0-103.13 46.173-103.131 103.13 0 56.957 46.173 103.13 103.13 103.131z" fill="black" stroke="transparent"></path></g><g transform="matrix(1,0,0,1,42.7015647428685,56.05803555722521)"><svg viewBox="0 0 129.709863337498 102.99692170878458" height="102.99692170878458" width="129.709863337498"><g><svg xmlns="http://www.w3.org/2000/svg" xmlns:xlink="http://www.w3.org/1999/xlink" version="1.1" x="0" y="0" viewBox="2.636 11.36 84.727 67.278" enable-background="new 0 0 90 90" xml:space="preserve" height="102.99692170878458" width="129.709863337498" class="icon-dxe-0" data-fill-palette-color="accent" id="SvgjsSvg1330"><path d="M65.488 65.37A3.24 3.24 0 0 1 62.245 65.888 3.26 3.26 0 0 1 61.005 64.989 24.52 24.52 0 0 1 47.723 73.789C50.713 71.707 53.186 68.118 54.844 63.58H60.297C60.276 63.484 60.234 63.398 60.223 63.301L59.938 61.136H55.63C56.471 58.145 56.973 54.828 57.068 51.3H58.642L58.32 48.856H57.068A44 44 0 0 0 56.672 44.099C55.893 44.316 55.084 44.53 54.282 44.744 54.456 46.08 54.584 47.444 54.626 48.856H46.016L45.52 51.3H54.625C54.521 54.841 53.986 58.184 53.088 61.136H42.795V55.735L41.543 56.61C41.18 56.867 40.771 57.009 40.351 57.096V61.136H30.058A35 35 0 0 1 29.011 56.536C28.744 56.644 28.469 56.753 28.207 56.865 27.683 57.088 27.215 57.31 26.717 57.533 26.936 58.771 27.194 59.984 27.515 61.136H19.708V61.134A38 38 0 0 0 17.712 62.426 29 29 0 0 0 16.351 63.449C21.156 72.474 30.654 78.638 41.572 78.638 51.811 78.638 60.78 73.205 65.822 65.089zM21.114 63.58H28.302C29.963 68.118 32.432 71.707 35.423 73.789A24.54 24.54 0 0 1 21.114 63.58M40.351 73.266C36.468 72.621 33.081 68.944 30.93 63.58H40.351zM42.795 63.58H52.216C50.067 68.941 46.676 72.621 42.795 73.266z" fill="black"></path><path d="M87.363 24.459C83.368 21.832 75.015 23.686 65.748 27.262L49.466 11.36 43.981 11.548 57.07 30.955C51.685 33.431 46.351 36.187 41.674 38.734L34.918 33.632 32.112 33.959 39.089 42.748 39.69 53.956 42.007 52.339 43.684 44.042C48.874 42.854 54.699 41.382 60.371 39.67L63.424 62.876 67.656 59.381 69.31 36.686C78.628 33.219 86.111 29.072 87.363 24.459" fill="black"></path><path d="M48.527 24.071L47.179 22.072A28.7 28.7 0 0 0 41.569 21.512C27.307 21.512 15.487 32.031 13.377 45.711A87 87 0 0 1 18.398 42.21C18.768 41.113 19.187 40.037 19.706 39.016H23.639A140 140 0 0 1 28.045 36.572H21.112A24.54 24.54 0 0 1 35.422 26.363C33.83 27.473 32.39 29.02 31.135 30.901 31.332 30.838 31.528 30.771 31.739 30.748L34.545 30.421 34.597 30.42C36.294 28.503 38.244 27.236 40.349 26.888V33.682L41.964 34.903C42.246 34.752 42.513 34.619 42.793 34.468V26.888C45.166 27.281 47.353 28.821 49.189 31.173L52.355 29.668z" fill="black"></path><path d="M35.919 43.951L31.522 38.413C28.535 39.944 25.2 41.758 21.715 43.93 17.823 46.376 13.737 49.2 9.99 52.799 8.13 54.612 6.342 56.627 4.892 59.057 4.175 60.274 3.553 61.606 3.125 63.048 3.01 63.401 2.933 63.781 2.845 64.149 2.798 64.332 2.776 64.524 2.741 64.712L2.639 65.393 2.636 66.225 2.659 67.451C2.766 68.928 3.16 70.5 3.944 71.871 4.71 73.254 5.86 74.317 7.004 74.999 9.331 76.362 11.513 76.585 13.392 76.696 17.165 76.811 20.061 76.196 22.087 75.794A80 80 0 0 0 23.699 75.433C17.819 75.124 14.156 73.714 12.189 72.646A8 8 0 0 1 10.661 71.669 5 5 0 0 1 10.344 71.406L10.382 71.403C10.261 71.288 10.12 71.18 10.018 71.057 9.132 69.998 9.109 69.036 9.423 67.656 9.477 67.514 9.524 67.385 9.563 67.251L9.802 66.452 9.81 66.429C9.832 66.304 9.788 66.57 9.794 66.535L9.807 66.507 9.829 66.444 9.873 66.323C9.906 66.244 9.924 66.164 9.965 66.081 10.044 65.918 10.098 65.755 10.193 65.59A10.4 10.4 0 0 1 11.541 63.582C12.668 62.239 14.193 60.953 15.864 59.778 19.236 57.427 23.173 55.502 26.949 53.893 30.233 52.499 33.404 51.37 36.266 50.42z" fill="black"></path></svg></g></svg></g></svg></g></svg></g></svg></g><defs><mask></mask></defs></svg><rect width="395.52" height="134.23894892104272" fill="black" stroke="none" visibility="hidden"></rect></g></mask><linearGradient x1="0" x2="1" y1="0.548" y2="0.55" id="40ba232e-42f0-4bef-a928-3b7f780d8355"><stop stop-color="#ff6cab" offset="0"></stop><stop stop-color="#7366ff" offset="1"></stop></linearGradient><rect width="395.52" height="134.2389533996257" fill="url(#40ba232e-42f0-4bef-a928-3b7f780d8355)" mask="url(#bd49ed21-8282-4071-b449-980385873b3a)" data-fill-palette-color="secondary"></rect></svg><rect width="395.52" height="134.23894892104272" fill="none" stroke="none" visibility="hidden"></rect></g></svg></g></svg>